<svg width="1206" height="1206" viewBox="0 0 1206 1206" fill="none" xmlns="http://www.w3.org/2000/svg">
<path d="M1161 603C1161 707.087 1132.5 804.517 1082.88 887.914C1060.77 925.071 1074.89 1017.22 1123.67 1092.27C1139.91 1117.26 1134.09 1153.25 1104.48 1156.64C1000.6 1168.53 902.056 1076.02 865.26 1095.65C787.077 1137.36 697.799 1161 603 1161C294.825 1161 45 911.175 45 603C45 294.825 294.825 45 603 45C911.175 45 1161 294.825 1161 603Z" fill="#68D544"/>
<path d="M1116.67 603C1116.67 319.31 886.69 89.3333 603 89.3333C319.31 89.3333 89.3333 319.31 89.3333 603C89.3333 886.69 319.31 1116.67 603 1116.67C690.345 1116.67 772.474 1094.9 844.392 1056.54C859.353 1048.56 874.622 1047.82 886.354 1048.97C897.988 1050.11 909.177 1053.39 918.753 1056.81C937.141 1063.38 959.382 1074.25 978.403 1082.89C1015.16 1099.6 1050.45 1112.97 1084.28 1113.35C1057.89 1071.69 1040.75 1025.78 1033.06 984.237C1025.66 944.28 1025.16 898.224 1044.78 865.242C1090.43 788.514 1116.67 698.889 1116.67 603ZM1206 603C1206 715.408 1175.2 820.759 1121.55 910.923C1119.05 915.12 1114.56 933.763 1120.9 967.978C1126.72 999.428 1140.31 1035.72 1161.43 1068.23C1175.74 1090.25 1181.29 1118.13 1174.92 1143.68C1168.02 1171.38 1146 1197.2 1109.86 1201.34C1044.4 1208.84 983.562 1183.36 941.446 1164.22C918.222 1153.67 902.412 1145.82 888.71 1140.93C885.063 1139.63 882.397 1138.88 880.553 1138.43C797.426 1181.6 703.002 1206 603 1206C269.972 1206 0 936.028 0 603C0 269.972 269.972 0 603 0C936.028 0 1206 269.972 1206 603Z" fill="black"/>
<path d="M890.926 370.541L786.268 377.664C779.145 378.212 773.117 380.952 767.638 385.335L685.446 459.856C662.98 448.349 638.322 437.938 614.213 430.267L693.117 351.363C699.145 345.335 702.432 336.568 701.884 328.349C701.336 320.13 696.953 311.362 690.377 305.883L589.007 225.335C575.308 214.924 556.678 217.115 545.719 230.266C535.308 243.965 537.5 262.595 550.651 273.554L625.172 332.732L345.718 612.186L286.54 537.665C276.129 523.966 256.951 522.322 243.252 532.733C229.554 543.144 227.91 562.322 238.321 576.021L318.869 677.391C324.348 683.967 332.02 688.35 341.335 688.898C350.65 689.446 358.321 686.159 364.349 680.131L443.253 601.227C450.924 625.336 461.335 648.898 472.842 672.46L398.321 754.652C393.39 759.583 391.198 766.159 390.65 773.282L385.719 875.748C384.623 892.187 397.225 906.981 414.212 908.625C423.527 909.173 432.294 905.885 438.322 899.858C443.253 894.926 446.541 888.351 447.089 880.132L453.664 785.885L507.911 726.159C524.897 751.912 541.884 773.282 555.582 786.981C560.514 791.912 565.993 796.296 571.473 800.68L535.856 871.365C529.281 883.42 532.021 898.214 542.432 907.529L627.363 988.077C639.418 999.036 658.048 999.036 669.555 987.53L670.103 986.982C681.61 974.379 681.062 955.201 669.007 944.242L600.514 879.036L627.911 825.337C681.61 835.2 741.884 816.57 786.816 771.638C832.296 726.159 850.378 665.336 840.515 612.734L894.214 585.336L959.42 653.83C970.926 666.432 990.653 666.432 1002.16 654.925L1002.71 654.378C1014.21 642.871 1014.76 623.692 1003.26 612.185L922.707 527.254C913.392 517.939 898.597 515.199 886.543 520.678L815.857 556.295C811.474 550.815 807.09 545.336 802.159 540.404C788.46 526.706 767.09 509.719 741.337 492.733L801.063 438.486L895.31 431.911C902.433 431.363 910.104 428.075 915.036 423.144C921.063 417.116 924.351 408.349 923.803 399.034C922.707 381.5 907.913 368.897 890.926 370.541Z" fill="black"/>
<path d="M396.677 511.911L527.637 380.952C510.65 359.582 486.541 347.527 461.883 345.883L442.157 302.048C435.582 286.705 417.499 279.582 401.609 286.705C386.266 293.28 379.143 311.363 386.266 327.253L401.609 362.322C396.129 365.609 392.294 369.445 387.91 373.829C383.527 378.212 379.691 383.144 376.403 387.527L341.335 372.185C325.444 365.062 307.91 371.637 300.786 387.527C294.211 402.87 300.786 420.404 316.129 428.075L359.965 447.802C362.705 471.363 374.759 495.473 396.677 511.911Z" fill="black"/>
</svg>
